<mxfile host="app.diagrams.net" agent="Mozilla/5.0 (Windows NT 10.0; Win64; x64) AppleWebKit/537.36 (KHTML, like Gecko) Chrome/131.0.0.0 Safari/537.36 Edg/131.0.0.0" version="25.0.3">
  <diagram name="Página-1" id="YcP2SsEEQNEyrOwMlSTP">
    <mxGraphModel grid="1" page="1" gridSize="10" guides="1" tooltips="1" connect="1" arrows="1" fold="1" pageScale="1" pageWidth="827" pageHeight="1169" math="0" shadow="0">
      <root>
        <mxCell id="0" />
        <mxCell id="1" parent="0" />
        <mxCell id="6LhaRCP2R-dF8AAxad9_-8" style="edgeStyle=orthogonalEdgeStyle;rounded=0;orthogonalLoop=1;jettySize=auto;html=1;entryX=0.082;entryY=-0.004;entryDx=0;entryDy=0;exitX=0;exitY=0.5;exitDx=0;exitDy=0;entryPerimeter=0;" edge="1" parent="1" source="6LhaRCP2R-dF8AAxad9_-1" target="6LhaRCP2R-dF8AAxad9_-7">
          <mxGeometry relative="1" as="geometry">
            <Array as="points">
              <mxPoint x="260" y="185" />
              <mxPoint x="260" y="300" />
              <mxPoint x="330" y="300" />
            </Array>
          </mxGeometry>
        </mxCell>
        <mxCell id="6LhaRCP2R-dF8AAxad9_-9" value="Envío Datos Persona" style="edgeLabel;html=1;align=center;verticalAlign=middle;resizable=0;points=[];" connectable="0" vertex="1" parent="6LhaRCP2R-dF8AAxad9_-8">
          <mxGeometry x="-0.2264" relative="1" as="geometry">
            <mxPoint y="69" as="offset" />
          </mxGeometry>
        </mxCell>
        <mxCell id="6LhaRCP2R-dF8AAxad9_-13" style="edgeStyle=orthogonalEdgeStyle;rounded=0;orthogonalLoop=1;jettySize=auto;html=1;entryX=1;entryY=0.5;entryDx=0;entryDy=0;" edge="1" parent="1" source="6LhaRCP2R-dF8AAxad9_-1" target="6LhaRCP2R-dF8AAxad9_-2">
          <mxGeometry relative="1" as="geometry">
            <Array as="points">
              <mxPoint x="340" y="90" />
            </Array>
          </mxGeometry>
        </mxCell>
        <mxCell id="6LhaRCP2R-dF8AAxad9_-14" value="Reporte administrativo" style="edgeLabel;html=1;align=center;verticalAlign=middle;resizable=0;points=[];" connectable="0" vertex="1" parent="6LhaRCP2R-dF8AAxad9_-13">
          <mxGeometry x="0.5185" y="-2" relative="1" as="geometry">
            <mxPoint x="29" y="2" as="offset" />
          </mxGeometry>
        </mxCell>
        <mxCell id="6LhaRCP2R-dF8AAxad9_-22" style="edgeStyle=orthogonalEdgeStyle;rounded=0;orthogonalLoop=1;jettySize=auto;html=1;exitX=0.75;exitY=1;exitDx=0;exitDy=0;entryX=0.75;entryY=0;entryDx=0;entryDy=0;" edge="1" parent="1" source="6LhaRCP2R-dF8AAxad9_-1" target="6LhaRCP2R-dF8AAxad9_-7">
          <mxGeometry relative="1" as="geometry" />
        </mxCell>
        <mxCell id="6LhaRCP2R-dF8AAxad9_-23" value="Envío datos PMF" style="edgeLabel;html=1;align=center;verticalAlign=middle;resizable=0;points=[];" connectable="0" vertex="1" parent="6LhaRCP2R-dF8AAxad9_-22">
          <mxGeometry x="-0.206" y="2" relative="1" as="geometry">
            <mxPoint x="2" y="30" as="offset" />
          </mxGeometry>
        </mxCell>
        <mxCell id="6LhaRCP2R-dF8AAxad9_-1" value="Sistema para la Gestión del Gimnasio" style="rounded=1;whiteSpace=wrap;html=1;" vertex="1" parent="1">
          <mxGeometry x="320" y="140" width="120" height="90" as="geometry" />
        </mxCell>
        <mxCell id="6LhaRCP2R-dF8AAxad9_-5" style="edgeStyle=orthogonalEdgeStyle;rounded=0;orthogonalLoop=1;jettySize=auto;html=1;exitX=0.5;exitY=1;exitDx=0;exitDy=0;entryX=0;entryY=0.25;entryDx=0;entryDy=0;" edge="1" parent="1" source="6LhaRCP2R-dF8AAxad9_-2" target="6LhaRCP2R-dF8AAxad9_-1">
          <mxGeometry relative="1" as="geometry">
            <mxPoint x="280" y="190" as="targetPoint" />
            <Array as="points">
              <mxPoint x="120" y="163" />
              <mxPoint x="280" y="163" />
            </Array>
          </mxGeometry>
        </mxCell>
        <mxCell id="6LhaRCP2R-dF8AAxad9_-6" value="Datos de Persona" style="edgeLabel;html=1;align=center;verticalAlign=middle;resizable=0;points=[];" connectable="0" vertex="1" parent="6LhaRCP2R-dF8AAxad9_-5">
          <mxGeometry x="-0.1687" relative="1" as="geometry">
            <mxPoint x="62" as="offset" />
          </mxGeometry>
        </mxCell>
        <mxCell id="6LhaRCP2R-dF8AAxad9_-2" value="Administrador de la Sede" style="rounded=0;whiteSpace=wrap;html=1;" vertex="1" parent="1">
          <mxGeometry x="60" y="60" width="120" height="60" as="geometry" />
        </mxCell>
        <mxCell id="6LhaRCP2R-dF8AAxad9_-15" style="edgeStyle=orthogonalEdgeStyle;rounded=0;orthogonalLoop=1;jettySize=auto;html=1;entryX=1;entryY=0.75;entryDx=0;entryDy=0;" edge="1" parent="1" source="6LhaRCP2R-dF8AAxad9_-3" target="6LhaRCP2R-dF8AAxad9_-1">
          <mxGeometry relative="1" as="geometry" />
        </mxCell>
        <mxCell id="6LhaRCP2R-dF8AAxad9_-16" value="Datos PMF" style="edgeLabel;html=1;align=center;verticalAlign=middle;resizable=0;points=[];" connectable="0" vertex="1" parent="6LhaRCP2R-dF8AAxad9_-15">
          <mxGeometry x="0.2499" y="3" relative="1" as="geometry">
            <mxPoint x="-3" y="-3" as="offset" />
          </mxGeometry>
        </mxCell>
        <mxCell id="6LhaRCP2R-dF8AAxad9_-3" value="Entrenador" style="rounded=0;whiteSpace=wrap;html=1;" vertex="1" parent="1">
          <mxGeometry x="550" y="210" width="120" height="60" as="geometry" />
        </mxCell>
        <mxCell id="6LhaRCP2R-dF8AAxad9_-7" value="Bases de Datos" style="rounded=0;whiteSpace=wrap;html=1;" vertex="1" parent="1">
          <mxGeometry x="320" y="330" width="120" height="60" as="geometry" />
        </mxCell>
        <mxCell id="6LhaRCP2R-dF8AAxad9_-17" style="edgeStyle=orthogonalEdgeStyle;rounded=0;orthogonalLoop=1;jettySize=auto;html=1;exitX=0.25;exitY=0;exitDx=0;exitDy=0;entryX=0.25;entryY=1;entryDx=0;entryDy=0;" edge="1" parent="1" source="6LhaRCP2R-dF8AAxad9_-7" target="6LhaRCP2R-dF8AAxad9_-1">
          <mxGeometry relative="1" as="geometry">
            <mxPoint x="410" y="330" as="sourcePoint" />
            <mxPoint x="410" y="230" as="targetPoint" />
            <Array as="points">
              <mxPoint x="350" y="320" />
              <mxPoint x="350" y="320" />
            </Array>
          </mxGeometry>
        </mxCell>
        <mxCell id="6LhaRCP2R-dF8AAxad9_-18" value="Registro Exitoso" style="edgeLabel;html=1;align=center;verticalAlign=middle;resizable=0;points=[];" connectable="0" vertex="1" parent="6LhaRCP2R-dF8AAxad9_-17">
          <mxGeometry x="-0.1877" relative="1" as="geometry">
            <mxPoint x="-30" y="-29" as="offset" />
          </mxGeometry>
        </mxCell>
      </root>
    </mxGraphModel>
  </diagram>
</mxfile>
